<svg id="Layer_1" data-name="Layer 1" xmlns="http://www.w3.org/2000/svg" width="195.6" height="96.8" viewBox="0 0 195.6 96.8"><defs><style>.cls-1{fill:#260156;}.cls-2{fill:#ff0092;}.cls-3{fill:#fff;}</style></defs><path class="cls-1" d="M23.7,0A23.7,23.7,0,1,1,0,23.7,23.69,23.69,0,0,1,23.7,0Z"/><path class="cls-2" d="M32.4,38.8l-2.8-7.7H17.5l-2.6,7.7H9.4L20.9,8.5h5.6L38,38.8ZM23.7,13.1h-.1a7.12,7.12,0,0,1-.5,2.2L19,27h9.3L24.1,15.3A7.12,7.12,0,0,1,23.7,13.1Z"/><path class="cls-1" d="M73.1,0A23.7,23.7,0,1,1,49.4,23.7,23.69,23.69,0,0,1,73.1,0Z"/><path class="cls-2" d="M83.3,30a8.08,8.08,0,0,1-2.9,6.4,11.72,11.72,0,0,1-7.6,2.4H62.9V8.5h9.6a11.08,11.08,0,0,1,6.9,1.9,6.08,6.08,0,0,1,2.5,5.1,6.63,6.63,0,0,1-1.5,4.3,8.16,8.16,0,0,1-4,2.7v.1A8.44,8.44,0,0,1,81.5,25,7.14,7.14,0,0,1,83.3,30ZM76.5,16.5a3.57,3.57,0,0,0-1.3-2.8,7.11,7.11,0,0,0-4-1H67.9v8.4h3.2a6.16,6.16,0,0,0,4-1.2A4.29,4.29,0,0,0,76.5,16.5ZM78,29.9a4,4,0,0,0-1.6-3.4,7.76,7.76,0,0,0-4.7-1.2H67.9v9.4h4.2a6,6,0,0,0,4.2-1.3A4.13,4.13,0,0,0,78,29.9Z"/><path class="cls-1" d="M171.9,0a23.7,23.7,0,1,1-23.7,23.7A23.69,23.69,0,0,1,171.9,0Z"/><path class="cls-2" d="M174.3,27.8v11h-5V28L159.5,8.6h5.7l6.1,12.6a7.6,7.6,0,0,1,.4,1.1,6.89,6.89,0,0,0,.3.8,14.58,14.58,0,0,1,.7-1.9L179,8.5h5.3Z"/><path class="cls-1" d="M122.5,0A23.7,23.7,0,1,1,98.8,23.7,23.69,23.69,0,0,1,122.5,0Z"/><path class="cls-2" d="M129.6,38.8l-6.4-11c-.1-.3-.2-.5-.3-.8a2.35,2.35,0,0,0-.2-.8h-.1c-.1.3-.2.5-.3.8a6.89,6.89,0,0,0-.3.8l-6.5,11h-6.1l10.1-15.2L110.2,8.5h6.2l5.4,10a7.28,7.28,0,0,1,1,2.3h.1a8.94,8.94,0,0,1,.7-1.6c.1-.2,2.2-3.8,6.3-10.7h5.7l-9.5,15,9.6,15.3Z"/><path class="cls-3" d="M23.7,49.4A23.7,23.7,0,1,1,0,73.1,23.69,23.69,0,0,1,23.7,49.4Z"/><path d="M32.4,88.2l-2.8-7.7H17.5l-2.6,7.7H9.4L20.9,57.9h5.6L38,88.2ZM23.7,62.5h-.1a7.12,7.12,0,0,1-.5,2.2L19,76.4h9.3L24.1,64.7A7.84,7.84,0,0,1,23.7,62.5Z"/><path class="cls-3" d="M73.1,49.4A23.65,23.65,0,1,1,49.4,73,23.69,23.69,0,0,1,73.1,49.4Z"/><path d="M83.3,79.4a8.08,8.08,0,0,1-2.9,6.4,11.72,11.72,0,0,1-7.6,2.4H62.9V57.9h9.6a11.08,11.08,0,0,1,6.9,1.9,6.08,6.08,0,0,1,2.5,5.1,6.63,6.63,0,0,1-1.5,4.3,7.56,7.56,0,0,1-4,2.7V72a8.44,8.44,0,0,1,5.1,2.4A7,7,0,0,1,83.3,79.4ZM76.5,65.8A3.57,3.57,0,0,0,75.2,63a7.11,7.11,0,0,0-4-1H67.9v8.4h3.2a6.16,6.16,0,0,0,4-1.2A4.15,4.15,0,0,0,76.5,65.8ZM78,79.2a4,4,0,0,0-1.6-3.4,7.76,7.76,0,0,0-4.7-1.2H67.9V84h4.2a6,6,0,0,0,4.2-1.3A3.9,3.9,0,0,0,78,79.2Z"/><path class="cls-3" d="M171.9,49.4a23.7,23.7,0,1,1-23.7,23.7A23.69,23.69,0,0,1,171.9,49.4Z"/><path d="M174.3,77.2v11h-5V77.3l-9.8-19.4h5.7l6.1,12.6a7.6,7.6,0,0,1,.4,1.1,6.89,6.89,0,0,0,.3.8,14.58,14.58,0,0,1,.7-1.9L179,57.8h5.3Z"/><path class="cls-3" d="M122.5,49.4A23.7,23.7,0,1,1,98.8,73.1,23.69,23.69,0,0,1,122.5,49.4Z"/><path d="M129.6,88.2l-6.4-11c-.1-.3-.2-.5-.3-.8a2.35,2.35,0,0,0-.2-.8h-.1c-.1.3-.2.5-.3.8a6.89,6.89,0,0,0-.3.8l-6.5,11h-6.1L119.5,73l-9.3-15.1h6.2l5.4,10a7.28,7.28,0,0,1,1,2.3h.1a8.94,8.94,0,0,1,.7-1.6c.1-.2,2.2-3.8,6.3-10.7h5.7l-9.5,15,9.6,15.3Z"/></svg>
