<?xml version="1.0" encoding="utf-8"?>
<!-- Generator: Adobe Illustrator 24.3.0, SVG Export Plug-In . SVG Version: 6.00 Build 0)  -->
<svg version="1.1" id="Layer_1" xmlns="http://www.w3.org/2000/svg" xmlns:xlink="http://www.w3.org/1999/xlink" x="0px" y="0px"
	 viewBox="0 0 195.6 96.7" style="enable-background:new 0 0 195.6 96.7;" xml:space="preserve">
<style type="text/css">
	.st0{fill:#260156;}
	.st1{fill:#FF0092;}
	.st2{fill:#FFFFFF;}
</style>
<g>
	<path class="st0" d="M23.7,0c13.1,0,23.7,10.6,23.7,23.7c0,13.1-10.6,23.7-23.7,23.7C10.6,47.4,0,36.8,0,23.7C0,10.6,10.6,0,23.7,0
		z"/>
	<path class="st1" d="M32.4,38.8l-2.8-7.7H17.5l-2.6,7.7H9.4L20.9,8.5h5.6L38,38.8H32.4z M23.7,13.1h-0.1c-0.1,0.8-0.2,1.6-0.5,2.2
		L19,27h9.3l-4.2-11.7C23.9,14.9,23.8,14.2,23.7,13.1z"/>
	<path class="st0" d="M73.1,0c13.1,0,23.7,10.6,23.7,23.7c0,13.1-10.6,23.7-23.7,23.7S49.4,36.8,49.4,23.7C49.4,10.6,60,0,73.1,0z"
		/>
	<path class="st1" d="M83.3,30c0,2.6-1,4.8-2.9,6.4c-2,1.6-4.5,2.4-7.6,2.4h-9.9V8.5h9.6c2.9,0,5.2,0.6,6.9,1.9
		c1.7,1.3,2.5,3,2.5,5.1c0,1.6-0.5,3.1-1.5,4.3c-1,1.3-2.3,2.1-4,2.7v0.1c2.2,0.3,3.8,1.1,5.1,2.4C82.7,26.3,83.3,28,83.3,30z
		 M76.5,16.5c0-1.2-0.5-2.1-1.3-2.8c-0.9-0.6-2.2-1-4-1h-3.3v8.4h3.2c1.7,0,3-0.4,4-1.2C76,19.1,76.5,18,76.5,16.5z M78,29.9
		c0-1.4-0.5-2.6-1.6-3.4s-2.6-1.2-4.7-1.2h-3.8v9.4h4.2c1.8,0,3.2-0.4,4.2-1.3C77.5,32.5,78,31.3,78,29.9z"/>
	<path class="st0" d="M171.9,0c13.1,0,23.7,10.6,23.7,23.7c0,13.1-10.6,23.7-23.7,23.7c-13.1,0-23.7-10.6-23.7-23.7
		C148.2,10.6,158.8,0,171.9,0z"/>
	<path class="st1" d="M174.3,27.8v11h-5V28l-9.8-19.4h5.7l6.1,12.6c0.2,0.4,0.3,0.8,0.4,1.1c0.1,0.3,0.2,0.6,0.3,0.8
		c0.2-0.6,0.4-1.3,0.7-1.9L179,8.5h5.3L174.3,27.8z"/>
	<path class="st0" d="M122.5,0c13.1,0,23.7,10.6,23.7,23.7c0,13.1-10.6,23.7-23.7,23.7S98.8,36.8,98.8,23.7
		C98.8,10.6,109.4,0,122.5,0z"/>
	<path class="st1" d="M129.6,38.8l-6.4-11c-0.1-0.3-0.2-0.5-0.3-0.8c0-0.3-0.1-0.5-0.2-0.8h-0.1c-0.1,0.3-0.2,0.5-0.3,0.8
		c-0.1,0.2-0.2,0.5-0.3,0.8l-6.5,11h-6.1l10.1-15.2l-9.3-15.1h6.2l5.4,10c0.5,0.9,0.9,1.6,1,2.3h0.1c0.3-0.8,0.5-1.3,0.7-1.6
		c0.1-0.2,2.2-3.8,6.3-10.7h5.7l-9.5,15l9.6,15.3H129.6z"/>
	<path class="st2" d="M23.7,49.4c13.1,0,23.7,10.6,23.7,23.7c0,13.1-10.6,23.7-23.7,23.7C10.6,96.7,0,86.1,0,73.1
		C0,60,10.6,49.4,23.7,49.4z"/>
	<path d="M32.4,88.2l-2.8-7.7H17.5l-2.6,7.7H9.4l11.5-30.3h5.6L38,88.2H32.4z M23.7,62.5h-0.1c-0.1,0.8-0.2,1.6-0.5,2.2L19,76.4h9.3
		l-4.2-11.7C23.9,64.3,23.8,63.5,23.7,62.5z"/>
	<path class="st2" d="M73.1,49.4c13.1,0,23.7,10.6,23.7,23.7c0,13.1-10.6,23.6-23.7,23.6S49.4,86.1,49.4,73S60,49.4,73.1,49.4z"/>
	<path d="M83.3,79.4c0,2.6-1,4.8-2.9,6.4c-2,1.6-4.5,2.4-7.6,2.4h-9.9V57.9h9.6c2.9,0,5.2,0.6,6.9,1.9c1.7,1.3,2.5,3,2.5,5.1
		c0,1.6-0.5,3.1-1.5,4.3c-1,1.3-2.3,2.2-4,2.7V72c2.2,0.3,3.8,1.1,5.1,2.4C82.7,75.7,83.3,77.3,83.3,79.4z M76.5,65.8
		c0-1.2-0.5-2.1-1.3-2.8c-0.9-0.6-2.2-1-4-1h-3.3v8.4h3.2c1.7,0,3-0.4,4-1.2C76,68.5,76.5,67.3,76.5,65.8z M78,79.2
		c0-1.4-0.5-2.6-1.6-3.4s-2.6-1.2-4.7-1.2h-3.8V84h4.2c1.8,0,3.2-0.4,4.2-1.3C77.5,81.9,78,80.7,78,79.2z"/>
	<path class="st2" d="M171.9,49.4c13.1,0,23.7,10.6,23.7,23.7c0,13.1-10.6,23.7-23.7,23.7c-13.1,0-23.7-10.6-23.7-23.7
		C148.2,60,158.8,49.4,171.9,49.4z"/>
	<path d="M174.3,77.2v11h-5V77.3l-9.8-19.4h5.7l6.1,12.6c0.2,0.4,0.3,0.8,0.4,1.1c0.1,0.3,0.2,0.6,0.3,0.8c0.2-0.6,0.4-1.3,0.7-1.9
		l6.3-12.7h5.3L174.3,77.2z"/>
	<path class="st2" d="M122.5,49.4c13.1,0,23.7,10.6,23.7,23.7c0,13.1-10.6,23.7-23.7,23.7S98.8,86.2,98.8,73.1
		C98.8,60,109.4,49.4,122.5,49.4z"/>
	<path d="M129.6,88.2l-6.4-11c-0.1-0.3-0.2-0.5-0.3-0.8c0-0.3-0.1-0.5-0.2-0.8h-0.1c-0.1,0.3-0.2,0.5-0.3,0.8
		c-0.1,0.2-0.2,0.5-0.3,0.8l-6.5,11h-6.1L119.5,73l-9.3-15.1h6.2l5.4,10c0.5,0.9,0.9,1.6,1,2.3h0.1c0.3-0.8,0.5-1.3,0.7-1.6
		c0.1-0.2,2.2-3.8,6.3-10.7h5.7l-9.5,15l9.6,15.3H129.6z"/>
</g>
</svg>
