<?xml version="1.0" encoding="utf-8"?>
<!-- Generator: Adobe Illustrator 24.3.0, SVG Export Plug-In . SVG Version: 6.00 Build 0)  -->
<svg version="1.1" id="Layer_1" xmlns="http://www.w3.org/2000/svg" xmlns:xlink="http://www.w3.org/1999/xlink" x="0px" y="0px"
	 viewBox="0 0 750 630.5" style="enable-background:new 0 0 750 630.5;" xml:space="preserve">
<style type="text/css">
	.st0{fill:#242424;}
	.st1{fill:url(#SVGID_1_);}
	.st2{fill:#EBEBEB;}
	.st3{fill:#DEDEDE;}
	.st4{fill:#141414;}
	.st5{fill:#120B0B;}
	.st6{fill:#292929;}
	.st7{fill:#191919;}
	.st8{fill:#1C1C1C;}
	.st9{fill:#171717;}
	.st10{fill:#0F0F0F;}
	.st11{fill:#1A1A1A;}
	.st12{fill:#1A1615;}
	.st13{fill:#0A0A0A;}
	.st14{fill:#6D6B6C;}
	.st15{fill:#E6E6E6;}
	.st16{clip-path:url(#SVGID_8_);}
	.st17{fill:#FFFFFF;}
</style>
<g>
	<path class="st0" d="M664.4,214c-6.7-16.7-20.5-20.9-21.8-22c-11.7-10.3-2.5-21.2-19.9-30.7c-18.3-9.9-72-37-114.2-31.4
		c-9.2,1.2-27.8,17.6-41.2,17.6c-21.9,0-92.2,0-92.2,0s-70.3,0-92.2,0c-13.4,0-32-16.4-41.2-17.6c-42.2-5.6-95.9,21.5-114.2,31.4
		c-17.5,9.5-8.2,20.4-19.9,30.7c-1.3,1.1-15.1,5.3-21.8,22C22.9,370-1.7,469.1,0.1,529.1C3,623.5,76.7,630.5,76.7,630.5
		c37-8.6,111.6-129.1,168.5-129.1c31.2,0,129.8,0,129.8,0s98.6,0,129.8,0c57,0,131.5,120.5,168.5,129.1c0,0,73.7-6.9,76.6-101.3
		C751.8,469.1,727.1,370,664.4,214"/>
	<linearGradient id="SVGID_1_" gradientUnits="userSpaceOnUse" x1="1.416681e-04" y1="381.688" x2="750.001" y2="381.688">
		<stop  offset="0" style="stop-color:#31006A"/>
		<stop  offset="1" style="stop-color:#7F002A"/>
	</linearGradient>
	<path class="st1" d="M664.4,214c-3.3-8.3-8.4-13.5-12.9-16.8c-3-2.2-5.7-3.6-7.4-4.4c-0.8-0.4-1.3-0.6-1.5-0.8
		c-33.6-18-97.5-38.2-117.5-34.3c-26,5-65.5,79.7-89,79.7c-15.1,0-60.5,0-60.5,0s-45.4,0-60.5,0c-23.4,0-63-74.7-89-79.7
		c-19.6-3.8-85.6,16.5-118.7,34.3c-0.2,0.2-0.6,0.4-1.2,0.7c-1.8,0.8-5.1,2.4-8.7,5.3c-4.2,3.3-8.8,8.4-11.9,16.1
		C22.9,370-1.7,469.1,0.1,529.1c0,1,0.1,2,0.1,2.9c3.2,68.5,87.5,99.3,134.8,49.8c35.1-36.7,75.8-80.5,110.2-80.5
		c31.2,0,129.8,0,129.8,0s98.6,0,129.8,0c34.4,0,75.1,43.8,110.1,80.5c47.4,49.6,131.6,18.7,134.8-49.8c0-1,0.1-1.9,0.1-2.9
		C751.8,469.1,727.1,370,664.4,214L664.4,214z"/>
	<path class="st2" d="M277.7,462.1c-33.4,0-60.6-27.2-60.6-60.6c0-33.4,27.2-60.6,60.6-60.6c33.4,0,60.6,27.2,60.6,60.6
		C338.3,434.9,311.1,462.1,277.7,462.1z"/>
	<path class="st3" d="M277.7,341.9c32.9,0,59.6,26.7,59.6,59.6c0,32.9-26.7,59.6-59.6,59.6c-32.9,0-59.6-26.7-59.6-59.6
		C218,368.6,244.8,341.9,277.7,341.9 M277.7,339.9c-34,0-61.6,27.6-61.6,61.6c0,34,27.6,61.6,61.6,61.6c34,0,61.6-27.6,61.6-61.6
		C339.3,367.4,311.7,339.9,277.7,339.9z"/>
	<path class="st4" d="M277.7,452.7c-7.1,0-12.7-1.3-13-3.1l0-0.1c0-0.1,0-15.5,0-34.4c0-0.3-0.2-0.5-0.5-0.5h-34.4
		c-1.8,0-3.2-5.7-3.2-13.1c0-7.3,1.4-13.1,3.2-13.1h34.4c0.3,0,0.5-0.2,0.5-0.5v-34.4l0-0.1l0.1-0.2l0.1-0.1c0.5-0.8,2.1-1.5,4.5-2
		c0.3-0.1,0.6-0.1,0.9-0.2c0.4-0.1,0.7-0.1,1-0.1l0.2,0c0.3,0,0.6-0.1,0.9-0.1c0.3,0,0.7-0.1,1-0.1c0.4,0,0.7-0.1,1-0.1l2.4-0.1
		c0.4,0,0.7,0,1,0c7.3,0,13.1,1.4,13.1,3.2c0,0.2,0,16,0,34.4c0,0.3,0.2,0.5,0.5,0.5h34.4c1.8,0,3.2,5.7,3.2,13.1
		c0,7.3-1.4,13.1-3.2,13.1h-34.4c-0.3,0-0.5,0.2-0.5,0.5v34.4l0,0.2C290.4,451.4,284.8,452.7,277.7,452.7z"/>
	<path class="st5" d="M277.7,350.8c8.1,0,12.6,1.6,12.6,2.7l0,0v34.4c0,0.6,0.4,1,1,1h34.4c1.1,0,2.7,4.8,2.7,12.6
		c0,7.8-1.6,12.6-2.7,12.6h-34.4c-0.6,0-1,0.4-1,1v34.4l0,0.1c-0.2,1.1-4.7,2.7-12.6,2.7c-7.9,0-12.4-1.5-12.6-2.7l0-0.1V415
		c0-0.6-0.4-1-1-1h-34.4c-1.1,0-2.7-4.8-2.7-12.6s1.6-12.6,2.7-12.6h34.4c0.6,0,1-0.4,1-1v-34.4l0,0l0,0l0,0l0-0.1l0-0.1
		c0.2-0.2,0.9-1.1,4.2-1.8l0.1,0c0.3-0.1,0.6-0.1,0.8-0.2l0.1,0c0.3-0.1,0.6-0.1,0.8-0.1l0.2,0c0.3,0,0.6-0.1,0.9-0.1l0,0
		c0.3,0,0.7-0.1,1-0.1l0,0c0.3,0,0.6-0.1,1-0.1l0.1,0c0.2,0,0.4,0,0.6,0l0.4,0l0.2,0c0.3,0,0.7,0,1,0l0.1,0
		C277,350.8,277.3,350.8,277.7,350.8 M277.7,349.8c-0.4,0-0.7,0-1.1,0l-0.1,0c-0.3,0-0.7,0-1,0l-0.2,0c-0.3,0-0.7,0-1,0l-0.1,0
		c-0.3,0-0.7,0-1,0.1l0,0c-0.3,0-0.7,0.1-1,0.1h0c-0.3,0-0.7,0.1-1,0.1l-0.1,0c-0.3,0-0.6,0.1-0.9,0.1l-0.1,0
		c-0.3,0.1-0.6,0.1-0.9,0.2l0,0c-2.4,0.5-4.2,1.2-4.9,2.2l-0.1,0.2l0,0l0,0.2l0,0l0,0.1l0,0.2c0,7.7,0,20.6,0,34.4
		c-19,0-34.4,0-34.4,0h0c-5,0-5,27.1,0,27.1c7.8,0,20.6,0,34.4,0c0,19,0,34.4,0,34.4l0,0.2c0.4,2.3,7,3.5,13.5,3.5
		c6.6,0,13.1-1.2,13.5-3.5l0-0.2c0-7.7,0-20.6,0-34.4c19,0,34.4,0,34.4,0c5,0,5-27.1,0-27.1c-7.8,0-20.6,0-34.4,0
		c0-19,0-34.4,0-34.4h0v0C291.2,351,284.4,349.8,277.7,349.8z"/>
	<path class="st0" d="M264.1,387.9l-3.6-3.6h-30.8c-0.9,0-1.8,0.2-2.8,0.8l2.8,2.8C229.7,387.9,245.1,387.9,264.1,387.9z"/>
	<path class="st6" d="M229.7,387.9L229.7,387.9l-2.8-2.8c-1.4,0.9-2.7,2.7-3.5,6.1c-0.7,2.7-1,6.4-1,10.2c0,3.8,0.4,7.4,1,10.2
		c0.8,3.4,2.2,5.2,3.5,6.1l2.8-2.8C224.7,415,224.7,387.9,229.7,387.9z"/>
	<path class="st0" d="M269.2,350.5L269.2,350.5c0.3-0.1,0.6-0.1,0.9-0.2l0.1,0c0.3-0.1,0.6-0.1,0.9-0.1l0.1,0c0.3,0,0.7-0.1,1-0.1h0
		c0.3,0,0.7-0.1,1-0.1l0,0c0.3,0,0.7-0.1,1-0.1l0.1,0c0.3,0,0.6,0,1,0l0.2,0c0.3,0,0.7,0,1,0l0.1,0c0.4,0,0.7,0,1.1,0
		c6.8,0,13.6,1.2,13.6,3.7l2.8-2.8c-0.9-1.4-2.7-2.7-6.1-3.5c-2.7-0.7-6.4-1-10.2-1c-3.8,0-7.5,0.4-10.2,1c-2.9,0.7-4.7,1.8-5.7,3
		l2.6,2.6C265,351.7,266.8,351,269.2,350.5z"/>
	<path class="st7" d="M325.7,387.9l2.8-2.8c-0.9-0.6-1.9-0.8-2.8-0.8h-30.8l-3.6,3.6C305,387.9,317.9,387.9,325.7,387.9z"/>
	<path class="st8" d="M291.2,353.5L291.2,353.5c0,0,0,15.4,0,34.4l3.6-3.6v-30.8c0-0.9-0.2-1.8-0.8-2.8L291.2,353.5z"/>
	<path class="st6" d="M264.1,353.5l0-0.2l0-0.1l0,0l0-0.2l0,0l0.1-0.2l-2.6-2.6c-1,1.1-1.3,2.3-1.3,3.3v30.8l3.6,3.6
		C264.1,374.1,264.1,361.3,264.1,353.5z"/>
	<path class="st9" d="M325.7,415L325.7,415c0,0-15.5,0-34.4,0l3.6,3.6h30.8h1.5l0.3-0.3c0.3-0.1,0.6-0.3,0.9-0.5L325.7,415z"/>
	<path class="st10" d="M291.2,449.5l2.8,2.8c0.6-0.9,0.8-1.9,0.8-2.8v-30.8l-3.6-3.6C291.2,428.9,291.2,441.7,291.2,449.5z"/>
	<path class="st10" d="M332,391.3c-0.8-3.4-2.2-5.2-3.6-6.1l-2.8,2.8c5,0,5,27.1,0,27.1l2.8,2.8c1.4-0.9,2.7-2.7,3.5-6.1
		c0.7-2.7,1-6.4,1-10.2C333,397.7,332.6,394,332,391.3z"/>
	<path class="st9" d="M291.2,449.7c-0.4,2.3-7,3.5-13.5,3.5s-13.1-1.2-13.5-3.5l0-0.2l-2.8,2.8c0.9,1.4,2.7,2.7,6.2,3.5
		c2.7,0.7,6.3,1,10.2,1c3.8,0,7.4-0.4,10.2-1c3.4-0.8,5.2-2.2,6.1-3.5l-2.8-2.8L291.2,449.7z"/>
	<path class="st8" d="M264.1,449.5L264.1,449.5c0,0,0-15.4,0-34.4l-3.6,3.6v30.8v0.8l0.1,0.2c0.1,0.5,0.3,1.1,0.7,1.7L264.1,449.5z"
		/>
	<path class="st11" d="M229.7,415l-2.8,2.8c1,0.6,1.9,0.8,2.8,0.8h30.8l3.6-3.6C250.3,415,237.4,415,229.7,415z"/>
	<path class="st12" d="M448.9,280.4c0,10.4-8.4,18.8-18.8,18.8c-10.4,0-18.8-8.4-18.8-18.8c0-10.4,8.4-18.8,18.8-18.8
		C440.5,261.6,448.9,270,448.9,280.4z"/>
	<path class="st13" d="M446.2,280.4c0,8.9-7.2,16.1-16.1,16.1c-8.9,0-16.1-7.2-16.1-16.1c0-8.9,7.2-16.1,16.1-16.1
		C439,264.3,446.2,271.5,446.2,280.4z"/>
	<path d="M446.2,280.4h-0.5c0,4.3-1.8,8.2-4.6,11c-2.8,2.8-6.7,4.6-11,4.6c-8.6,0-15.6-7-15.6-15.6c0-4.3,1.7-8.2,4.6-11
		c2.8-2.8,6.7-4.6,11-4.6c8.6,0,15.6,7,15.6,15.6H446.2h0.5c0-9.2-7.5-16.6-16.6-16.6c-9.2,0-16.6,7.4-16.6,16.6
		c0,4.6,1.9,8.7,4.9,11.7c3,3,7.2,4.9,11.7,4.9c9.1,0,16.6-7.4,16.6-16.6H446.2z"/>
	<rect x="422.9" y="275.7" class="st14" width="14.4" height="1.6"/>
	<rect x="422.9" y="279.7" class="st14" width="14.4" height="1.6"/>
	<rect x="422.9" y="283.5" class="st14" width="14.4" height="1.5"/>
	<path class="st12" d="M340.9,280.4c0,10.4-8.4,18.8-18.8,18.8c-10.4,0-18.8-8.4-18.8-18.8c0-10.4,8.4-18.8,18.8-18.8
		C332.5,261.6,340.9,270,340.9,280.4z"/>
	<path class="st13" d="M338.2,280.4c0,8.9-7.2,16.1-16.1,16.1c-8.9,0-16.1-7.2-16.1-16.1c0-8.9,7.2-16.1,16.1-16.1
		C331,264.3,338.2,271.5,338.2,280.4z"/>
	<path d="M338.2,280.4h-0.5c0,8.6-7,15.6-15.6,15.6c-4.3,0-8.2-1.7-11-4.6c-2.8-2.8-4.6-6.7-4.6-11c0-4.3,1.8-8.2,4.6-11
		c2.8-2.8,6.7-4.6,11-4.6c8.6,0,15.6,7,15.6,15.6H338.2h0.5c0-9.2-7.4-16.6-16.6-16.6c-9.1,0-16.6,7.4-16.6,16.6
		c0,9.2,7.5,16.6,16.6,16.6c4.6,0,8.7-1.9,11.7-4.9c3-3,4.9-7.2,4.9-11.7H338.2z"/>
	<polygon class="st14" points="319.6,280.3 316.6,280.3 316.6,276.5 322,276.5 322,277.8 323.8,277.8 323.8,274.7 315,274.7 
		315,282.1 319.6,282.1 	"/>
	<path class="st14" d="M320.4,278.4v7.6h9v-7.6H320.4z M327.5,284.2H322v-3.9h5.5V284.2z"/>
	<path class="st15" d="M185.5,351.5c-37.3,0-67.7-30.4-67.7-67.7c0-37.3,30.4-67.7,67.7-67.7c37.3,0,67.7,30.4,67.7,67.7
		C253.2,321.1,222.8,351.5,185.5,351.5z"/>
	<path class="st3" d="M185.5,351.5v-1c-18.4,0-35.1-7.5-47.1-19.6c-12.1-12.1-19.6-28.7-19.6-47.1c0-18.4,7.5-35.1,19.6-47.1
		c12.1-12.1,28.7-19.6,47.1-19.6c18.4,0,35.1,7.5,47.1,19.6c12.1,12.1,19.6,28.7,19.6,47.1c0,18.4-7.5,35.1-19.6,47.1
		c-12.1,12.1-28.8,19.6-47.1,19.6V351.5v1c37.9,0,68.7-30.8,68.7-68.7c0-37.9-30.8-68.7-68.7-68.7c-37.9,0-68.7,30.8-68.7,68.7
		c0,37.9,30.8,68.7,68.7,68.7V351.5z"/>
	<path d="M241.6,279.9c0,31-25.1,56.1-56.1,56.1c-31,0-56.1-25.1-56.1-56.1c0-31,25.1-56.1,56.1-56.1
		C216.5,223.8,241.6,248.9,241.6,279.9z"/>
	<path class="st5" d="M241.6,279.9h-1c0,15.2-6.2,29-16.1,39c-10,10-23.7,16.1-39,16.1c-15.2,0-29-6.2-39-16.1
		c-10-10-16.1-23.7-16.1-39c0-15.2,6.2-29,16.1-39c10-10,23.7-16.1,39-16.1c15.2,0,29,6.2,39,16.1c10,10,16.1,23.7,16.1,39H241.6h1
		c0-31.6-25.6-57.1-57.1-57.1c-31.5,0-57.1,25.6-57.1,57.1c0,31.5,25.6,57.1,57.1,57.1c31.5,0,57.1-25.6,57.1-57.1H241.6z"/>
	<path class="st15" d="M473,465.5c-37.3,0-67.7-30.4-67.7-67.7c0-37.3,30.4-67.7,67.7-67.7c37.3,0,67.7,30.4,67.7,67.7
		C540.7,435.1,510.4,465.5,473,465.5z"/>
	<path class="st3" d="M473,465.5v-1c-18.4,0-35.1-7.5-47.1-19.6c-12.1-12.1-19.6-28.7-19.6-47.1c0-18.4,7.5-35.1,19.6-47.1
		c12.1-12.1,28.7-19.6,47.1-19.6c18.4,0,35.1,7.5,47.1,19.6c12.1,12.1,19.6,28.8,19.6,47.1c0,18.4-7.5,35.1-19.6,47.1
		c-12.1,12.1-28.8,19.6-47.1,19.6V465.5v1c37.9,0,68.7-30.8,68.7-68.7c0-37.9-30.8-68.7-68.7-68.7c-37.9,0-68.7,30.8-68.7,68.7
		c0,37.9,30.8,68.7,68.7,68.7V465.5z"/>
	<path d="M529.2,393.8c0,31-25.1,56.1-56.1,56.1c-31,0-56.1-25.1-56.1-56.1c0-31,25.1-56.1,56.1-56.1
		C504,337.7,529.2,362.8,529.2,393.8z"/>
	<path class="st5" d="M529.2,393.8h-1c0,15.2-6.2,29-16.1,39c-10,10-23.7,16.1-39,16.1c-15.2,0-29-6.2-38.9-16.1
		c-10-10-16.1-23.7-16.1-39c0-15.2,6.2-29,16.1-39c10-10,23.7-16.1,38.9-16.1c15.2,0,29,6.2,39,16.1c10,10,16.1,23.7,16.1,39H529.2
		h1c0-31.5-25.6-57.1-57.1-57.1c-31.5,0-57.1,25.6-57.1,57.1c0,31.6,25.6,57.1,57.1,57.1c31.6,0,57.1-25.6,57.1-57.1H529.2z"/>
	<path class="st13" d="M566.8,355.3c-13.9,0-25.2-11.3-25.2-25.2c0-13.9,11.3-25.2,25.2-25.2c13.9,0,25.2,11.3,25.2,25.2
		C592,344,580.7,355.3,566.8,355.3z"/>
	<path class="st12" d="M566.8,306.4c13.1,0,23.7,10.6,23.7,23.7c0,13.1-10.6,23.7-23.7,23.7c-13.1,0-23.7-10.6-23.7-23.7
		C543.1,317,553.7,306.4,566.8,306.4 M566.8,303.4c-14.7,0-26.7,12-26.7,26.7c0,14.7,12,26.7,26.7,26.7c14.7,0,26.7-12,26.7-26.7
		C593.5,315.4,581.5,303.4,566.8,303.4z"/>
	<path class="st13" d="M566.8,254.2c-13.9,0-25.2-11.3-25.2-25.2c0-13.9,11.3-25.2,25.2-25.2c13.9,0,25.2,11.3,25.2,25.2
		C592,242.9,580.7,254.2,566.8,254.2z"/>
	<path class="st12" d="M566.8,205.3c13.1,0,23.7,10.6,23.7,23.7c0,13.1-10.6,23.7-23.7,23.7c-13.1,0-23.7-10.6-23.7-23.7
		C543.1,215.9,553.7,205.3,566.8,205.3 M566.8,202.3c-14.7,0-26.7,12-26.7,26.7c0,14.7,12,26.7,26.7,26.7c14.7,0,26.7-12,26.7-26.7
		C593.5,214.3,581.5,202.3,566.8,202.3z"/>
	<path class="st13" d="M617.3,304.7c-13.9,0-25.2-11.3-25.2-25.2c0-13.9,11.3-25.2,25.2-25.2c13.9,0,25.2,11.3,25.2,25.2
		C642.5,293.4,631.2,304.7,617.3,304.7z"/>
	<path class="st12" d="M617.3,255.8c13.1,0,23.7,10.6,23.7,23.7c0,13.1-10.6,23.7-23.7,23.7c-13.1,0-23.7-10.6-23.7-23.7
		C593.6,266.4,604.2,255.8,617.3,255.8 M617.3,252.8c-14.7,0-26.7,12-26.7,26.7c0,14.7,12,26.7,26.7,26.7c14.7,0,26.7-12,26.7-26.7
		C644,264.8,632,252.8,617.3,252.8z"/>
	<path class="st13" d="M516.2,304.7c-13.9,0-25.2-11.3-25.2-25.2c0-13.9,11.3-25.2,25.2-25.2c13.9,0,25.2,11.3,25.2,25.2
		C541.4,293.4,530.1,304.7,516.2,304.7z"/>
	<path class="st12" d="M516.2,255.8c13.1,0,23.7,10.6,23.7,23.7c0,13.1-10.6,23.7-23.7,23.7c-13.1,0-23.7-10.6-23.7-23.7
		C492.5,266.4,503.1,255.8,516.2,255.8 M516.2,252.8c-14.7,0-26.7,12-26.7,26.7c0,14.7,12,26.7,26.7,26.7c14.7,0,26.7-12,26.7-26.7
		C542.9,264.8,530.9,252.8,516.2,252.8z"/>
	<path class="st0" d="M375.6,156.5c0,0-88.9-1.1-100.5-3l-16.4,30.5c20.2,23.3,41.6,53.3,56.4,53.3c15.1,0,60.5,0,60.5,0
		s45.4,0,60.5,0c14.9,0,36.2-30,56.5-53.3l-16.4-30.5C464.6,155.4,375.6,156.5,375.6,156.5"/>
	<path d="M476.2,153.5l-3.6-6.8c-1.9,0.5-3.7,0.7-5.4,0.7c-21.9,0-92.2,0-92.2,0s-70.3,0-92.2,0c-1.4,0-2.8-0.2-4.3-0.5l-3.5,6.5
		c11.6,1.9,100.5,3,100.5,3S464.6,155.4,476.2,153.5"/>
	<path class="st0" d="M642.5,192c-9-7.9-5.6-16.2-11.5-23.8c0.2,0.3,0.5,0.7,0.7,1c0,0-96.5-42.1-120.8-34.5
		c-15.6,4.9-27.2,15.3-32.8,18.2l15.9,29.6c11.2-12.7,21.9-23,31.1-24.8C545.1,153.8,609,174,642.5,192L642.5,192z"/>
	<path d="M511,134.6c24.3-7.6,120.8,34.5,120.8,34.5c-0.2-0.3-0.5-0.7-0.7-1L631,168c-0.1-0.1-0.2-0.2-0.3-0.4l-0.1-0.2
		c-0.1-0.1-0.2-0.2-0.3-0.3l-0.2-0.2c-0.1-0.1-0.2-0.2-0.3-0.3l-0.2-0.2c-0.1-0.1-0.2-0.2-0.3-0.3l-0.2-0.2
		c-0.1-0.1-0.2-0.2-0.3-0.3l-0.2-0.2c-0.1-0.1-0.2-0.2-0.3-0.3l-0.2-0.2c-0.1-0.1-0.2-0.2-0.3-0.3l-0.3-0.2
		c-0.1-0.1-0.2-0.2-0.3-0.3c-0.1-0.1-0.2-0.1-0.3-0.2c-0.1-0.1-0.2-0.2-0.4-0.3c-0.1,0-0.2-0.1-0.3-0.2c-0.1-0.1-0.3-0.2-0.4-0.3
		c-0.1-0.1-0.2-0.1-0.3-0.2c-0.1-0.1-0.3-0.2-0.4-0.3c-0.1-0.1-0.2-0.1-0.3-0.2c-0.2-0.1-0.3-0.2-0.5-0.3c-0.1-0.1-0.2-0.1-0.3-0.2
		c-0.2-0.1-0.4-0.2-0.5-0.3c-0.1-0.1-0.2-0.1-0.3-0.2c-0.3-0.2-0.6-0.3-0.8-0.5c-18.3-9.9-72-37-114.2-31.4
		c-7.6,1-21.6,12.3-33.8,16.3l3.6,6.7C483.7,149.9,495.4,139.5,511,134.6z"/>
	<path d="M241.6,129.9c-42.2-5.6-95.9,21.5-114.2,31.4c-0.3,0.2-0.6,0.3-0.8,0.5c-0.1,0.1-0.2,0.1-0.2,0.2c-0.2,0.1-0.4,0.2-0.5,0.3
		c-0.1,0.1-0.2,0.1-0.3,0.2c-0.1,0.1-0.3,0.2-0.5,0.3c-0.1,0-0.2,0.1-0.3,0.2c-0.1,0.1-0.3,0.2-0.4,0.3c-0.1,0.1-0.2,0.1-0.3,0.2
		c-0.1,0.1-0.3,0.2-0.4,0.3c-0.1,0.1-0.2,0.1-0.3,0.2c-0.1,0.1-0.3,0.2-0.4,0.3l-0.2,0.2c-0.1,0.1-0.2,0.2-0.4,0.3l-0.2,0.2
		c-0.1,0.1-0.2,0.2-0.3,0.3l-0.2,0.2c-0.1,0.1-0.2,0.2-0.3,0.3l-0.2,0.2c-0.1,0.1-0.2,0.2-0.3,0.3l-0.2,0.2
		c-0.1,0.1-0.2,0.2-0.3,0.3l-0.1,0.2c-0.1,0.1-0.2,0.2-0.3,0.3l-0.1,0.1c-0.1,0.1-0.2,0.3-0.3,0.4l-0.1,0.1
		c-0.1,0.1-0.2,0.3-0.3,0.4L119,168c-0.1,0.1-0.2,0.3-0.3,0.4l0,0c-0.1,0.2-0.2,0.3-0.3,0.5c0,0,97.7-42,122-34.4
		c15.5,4.9,27.2,15.3,32.8,18.2l3.4-6.3C264.1,142.9,249.5,130.9,241.6,129.9z"/>
	<path class="st11" d="M273.6,153.1c0.2,0.1,0.3,0.1,0.5,0.2C273.9,153.2,273.7,153.2,273.6,153.1z"/>
	<path class="st0" d="M273.1,152.8c-5.6-2.9-17.3-13.4-32.8-18.2c-24.2-7.6-121.3,34.1-122,34.4c-5,7.4-2.2,15.3-10.8,23l-0.1,0
		c33.2-17.9,99.2-38.1,118.7-34.3c9.1,1.8,19.9,12.1,31.1,24.8L273.1,152.8L273.1,152.8z"/>
	<path d="M273.1,152.8c0.2,0.1,0.3,0.2,0.5,0.2C273.4,153,273.3,152.9,273.1,152.8z"/>
	<path d="M258,183.2c0.2,0.3,0.5,0.6,0.7,0.8l16.4-30.5l3.5-6.5c-0.3-0.1-0.7-0.1-1-0.2c-0.3-0.1-0.7-0.2-1-0.3l-3.4,6.3l-15.9,29.6
		C257.5,182.7,257.7,183,258,183.2"/>
	<path d="M478.1,152.8l-3.6-6.7c-0.3,0.1-0.7,0.2-1,0.3c-0.3,0.1-0.7,0.2-1,0.3l3.6,6.8l16.4,30.5c0.2-0.3,0.5-0.5,0.7-0.8
		c0.2-0.3,0.5-0.5,0.7-0.8L478.1,152.8z"/>
	<polyline class="st11" points="356.9,169.3 356.9,169.3 356.9,169.3 	"/>
	<g>
		<defs>
			<path id="SVGID_2_" d="M426.2,145.4h-102v2.1c25.1,0,50.8,0,50.8,0s26,0,51.2,0V145.4"/>
		</defs>
		<clipPath id="SVGID_3_">
			<use xlink:href="#SVGID_2_"  style="overflow:visible;"/>
		</clipPath>
		<g style="clip-path:url(#SVGID_3_);">
			
				<image style="overflow:visible;" width="104" height="4" xlink:href="93AECA98D92BE11A.jpg"  transform="matrix(1 0 0 1 323.2354 144.4111)">
			</image>
		</g>
	</g>
	<g>
		<defs>
			<path id="SVGID_4_" d="M324.2,155.6L324.2,155.6c25.6,0.6,51.4,0.9,51.4,0.9s0.2,0,0.5,0c-0.3,0-0.5,0-0.5,0
				S349.8,156.2,324.2,155.6 M426.2,147.5c-25.3,0-51.2,0-51.2,0s-25.6,0-50.8,0v0c25.1,0,50.8,0,50.8,0S401,147.5,426.2,147.5
				L426.2,147.5"/>
		</defs>
		<clipPath id="SVGID_5_">
			<use xlink:href="#SVGID_4_"  style="overflow:visible;"/>
		</clipPath>
		<g style="clip-path:url(#SVGID_5_);">
			
				<image style="overflow:visible;" width="104" height="11" xlink:href="93AECA98D92BE11B.jpg"  transform="matrix(1 0 0 1 323.2354 146.4111)">
			</image>
		</g>
	</g>
	<g>
		<defs>
			<line id="SVGID_6_" x1="426.2" y1="247.4" x2="426.2" y2="237.4"/>
		</defs>
		<defs>
			<path id="SVGID_7_" d="M426.2,237.4c-19.3,0-50.6,0-50.6,0s-32.2,0-51.4,0v10"/>
		</defs>
		<clipPath id="SVGID_8_">
			<use xlink:href="#SVGID_6_"  style="overflow:visible;"/>
		</clipPath>
		<clipPath id="SVGID_9_" class="st16">
			<use xlink:href="#SVGID_7_"  style="overflow:visible;"/>
		</clipPath>
	</g>
	<g>
		<defs>
			<path id="SVGID_10_" d="M356.9,169.3L356.9,169.3L356.9,169.3 M324.2,155.6v81.8c19.2,0,51.4,0,51.4,0s31.4,0,50.6,0v-81.8
				c-23.3,0.5-46.5,0.8-50.1,0.9c-0.3,0-0.5,0-0.5,0S349.8,156.2,324.2,155.6"/>
		</defs>
		<clipPath id="SVGID_11_">
			<use xlink:href="#SVGID_10_"  style="overflow:visible;"/>
		</clipPath>
		<g style="clip-path:url(#SVGID_11_);">
			
				<image style="overflow:visible;" width="104" height="84" xlink:href="93AECA98D92BE11C.jpg"  transform="matrix(1 0 0 1 323.2354 154.4111)">
			</image>
		</g>
	</g>
	<g>
		<defs>
			<path id="SVGID_12_" d="M426.2,147.5c-25.3,0-51.2,0-51.2,0s-25.6,0-50.8,0v8.1c25.6,0.6,51.4,0.9,51.4,0.9s0.2,0,0.5,0
				c3.6,0,26.8-0.3,50.1-0.9V147.5"/>
		</defs>
		<use xlink:href="#SVGID_12_"  style="overflow:visible;"/>
		<clipPath id="SVGID_13_">
			<use xlink:href="#SVGID_12_"  style="overflow:visible;"/>
		</clipPath>
		<g style="clip-path:url(#SVGID_13_);">
			
				<image style="overflow:visible;" width="104" height="11" xlink:href="93AECA98D92BE11D.jpg"  transform="matrix(1 0 0 1 323.2354 146.4111)">
			</image>
		</g>
	</g>
	<g>
		<defs>
			<polyline id="SVGID_14_" points="356.9,169.3 356.9,169.3 356.9,169.3 			"/>
		</defs>
		<clipPath id="SVGID_15_">
			<use xlink:href="#SVGID_14_"  style="overflow:visible;"/>
		</clipPath>
		<g style="clip-path:url(#SVGID_15_);">
			
				<image style="overflow:visible;" width="3" height="3" xlink:href="93AECA98D92BE11F.jpg"  transform="matrix(1 0 0 1 356.2354 168.4111)">
			</image>
		</g>
	</g>
	<path class="st17" d="M407.6,196.4c0,18-14.6,32.6-32.6,32.6c-18,0-32.6-14.6-32.6-32.6c0-18,14.6-32.6,32.6-32.6
		C393,163.8,407.6,178.4,407.6,196.4z"/>
	<path class="st11" d="M384,182c0,0,8.9-9.4,13.8-8.9l0,0c-0.7-0.7-1.5-1.4-2.3-2l0,0c-0.4-0.3-0.8-0.6-1.2-0.9l-0.1-0.1
		c-0.4-0.3-0.8-0.5-1.2-0.8l0,0c-0.4-0.1-0.8-0.1-1.2-0.2c-5.2-0.5-16.9,4.5-16.9,4.5s-11.6-5-16.9-4.5c-0.4,0-0.8,0.1-1.2,0.2l0,0
		c-0.4,0.3-0.8,0.6-1.2,0.8l-0.1,0c-0.4,0.3-0.8,0.6-1.2,0.9l0,0c-0.8,0.6-1.5,1.3-2.3,2v0c4.8-0.6,13.8,8.9,13.8,8.9
		s-17.7,20.9-17,34.1c1.1,1.4,2.3,2.8,3.6,4c-0.4-12,22.3-30.1,22.3-30.1s22.8,18.1,22.3,30.1c1.3-1.2,2.5-2.6,3.6-4l0,0
		C401.7,202.9,384,182,384,182z"/>
	<path class="st0" d="M549.1,5.5c-0.4-0.3-0.8-0.6-1.2-0.9l-2.3,110l53.3,7.2C586.7,5,555.8,10.8,549.1,5.5z"/>
	<path d="M522,0.1c-10.8,0.4-12.1,11.4-12.2,15.2v1.2c0,0,2.9,40.7,0,93.1c9.9,2.3,38.5,5.3,38.5,5.3s0-20.9,0.7-50.6
		c0.8-37.5-1.2-59.8-1.2-59.8C541.5,0.1,534.3-0.3,522,0.1z"/>
	<path class="st0" d="M201,5.5c0.4-0.3,0.8-0.6,1.2-0.9l2.3,110l-53.2,7.2C163.3,5,194.2,10.8,201,5.5z"/>
	<path d="M228,0.1c10.8,0.4,12.1,11.4,12.2,15.2v1.2c0,0-2.9,40.7,0,93.1c-9.9,2.3-38.5,5.3-38.5,5.3S201.6,94,201,64.4
		c-0.8-37.5,1.2-59.8,1.2-59.8C208.6,0.1,215.8-0.3,228,0.1z"/>
</g>
</svg>
