<?xml version="1.0" encoding="utf-8"?>
<!-- Generator: Adobe Illustrator 24.3.0, SVG Export Plug-In . SVG Version: 6.00 Build 0)  -->
<svg version="1.1" id="Layer_1" xmlns="http://www.w3.org/2000/svg" xmlns:xlink="http://www.w3.org/1999/xlink" x="0px" y="0px"
	 width="98.9px" height="22.4px" viewBox="0 0 98.9 22.4" style="enable-background:new 0 0 98.9 22.4;" xml:space="preserve">
<style type="text/css">
	.st0{fill:url(#SVGID_1_);}
	.st1{fill:url(#SVGID_2_);}
</style>
<g>
	<linearGradient id="SVGID_1_" gradientUnits="userSpaceOnUse" x1="22.4642" y1="-14.7142" x2="92.3971" y2="55.2186">
		<stop  offset="0" style="stop-color:#F6F1A8"/>
		<stop  offset="0.1764" style="stop-color:#DAC017"/>
		<stop  offset="0.385" style="stop-color:#EEE669"/>
		<stop  offset="0.6159" style="stop-color:#E9BC00"/>
		<stop  offset="1" style="stop-color:#C78500"/>
	</linearGradient>
	<path class="st0" d="M0,15.5c0-0.8,0.4-1.5,1.1-1.9C5.6,10.7,24.4,0,52.6,0c26.9,0,41.1,5.9,45.1,8c0.8,0.4,1.2,1.2,1.2,2
		c0,0-9.8-2.9-47.5-2.9S0,15.5,0,15.5z"/>
	<linearGradient id="SVGID_2_" gradientUnits="userSpaceOnUse" x1="24.375" y1="-8.875" x2="76.575" y2="43.325">
		<stop  offset="0" style="stop-color:#E4DA2C"/>
		<stop  offset="0.1764" style="stop-color:#CDB100"/>
		<stop  offset="0.385" style="stop-color:#EBCA00"/>
		<stop  offset="0.6159" style="stop-color:#C8A300"/>
		<stop  offset="1" style="stop-color:#914900"/>
	</linearGradient>
	<path class="st1" d="M0,22.4L0,22.4v-6.9c0,0,13.7-8.4,51.4-8.4c37.8,0,47.5,2.9,47.5,2.9v11l0,0c-7.7-1.3-21.2-2.6-44.1-2.6
		C26.3,18.4,8.9,20.7,0,22.4z"/>
</g>
</svg>
